<svg xmlns="http://www.w3.org/2000/svg" version="1.1" xmlns:xlink="http://www.w3.org/1999/xlink" xmlns:svgjs="http://svgjs.dev/svgjs" width="1000" height="209" viewBox="0 0 1000 209"><g transform="matrix(1,0,0,1,-0.6060605994895809,-0.2466437644745696)"><svg viewBox="0 0 396 83" data-background-color="#fafafa" preserveAspectRatio="xMidYMid meet" height="209" width="1000" xmlns="http://www.w3.org/2000/svg" xmlns:xlink="http://www.w3.org/1999/xlink"><g id="tight-bounds" transform="matrix(1,0,0,1,0.24000000260213028,0.0979494375664558)"><svg viewBox="0 0 395.52 82.80410112486709" height="82.80410112486709" width="395.52"><g><svg viewBox="0 0 453.5416014500053 94.95121518709651" height="82.80410112486709" width="395.52"><g><svg viewBox="0 0 453.5416014500053 94.95121518709651" height="94.95121518709651" width="453.5416014500053"><g id="textblocktransform"><svg viewBox="0 0 453.5416014500053 94.95121518709651" height="94.95121518709651" width="453.5416014500053" id="textblock"><g><svg viewBox="0 0 453.5416014500053 58.248" height="58.248" width="453.5416014500053"><g><svg><g></g><g></g></svg></g><g><svg><g></g><g><svg></svg></g></svg></g><g id="text-0"><svg viewBox="0 0 453.5416014500053 58.248" height="58.248" width="453.5416014500053"><g><svg xmlns="http://www.w3.org/2000/svg" xmlns:xlink="http://www.w3.org/1999/xlink" xml:space="preserve" version="1.1" style="shape-rendering:geometricPrecision;text-rendering:geometricPrecision;image-rendering:optimizeQuality;" viewBox="-0.17324590682983398 -0.07499885559082031 1431.1732177734375 1883.074951171875" x="0" y="0" fill-rule="evenodd" clip-rule="evenodd" width="44.26960145000535" height="58.248" class="icon-s-0" data-fill-palette-color="accent" id="s-0"><g fill="#e77917" data-fill-palette-color="accent"><g fill="#e77917" data-fill-palette-color="accent"><path class="" d="M605 134l111-105 0 0 0 0c1 0 2-1 3-2 21-19 48-28 74-27 27 1 54 12 74 33l0 0 0 0c1 1 2 1 2 2l99 105c20 21 29 49 29 76-1 28-12 55-34 75l-55 52-303-209z m261 248l-14 13 14-13z m-35-45l19-18-19 18z m21-19l72-69c10-9 15-22 16-34 0-13-4-26-14-36l-98-105c-1 0-1-1-1-1l0 0 0 0-1 0 0 0 26 245z m-96-248l-94 89 94-89z m1 0l0 0 0 0-1 0 0 0 1 0z m0-1l0 1 0-1z m35-12c-13 0-25 4-35 12l35-12z m34 16c-9-10-22-16-34-16l34 16z m363 891l-327-452c-6 64-33 125-81 170l-177 165 0 0c-20 19-54 15-95-8-33-18-74-49-118-88l-1-1c-42-5-83-24-115-58-32-34-49-76-51-119-1-1-1-2-2-2-36-46-63-89-79-122-20-42-22-76-2-94l1-1 176-165c59-56 139-78 220-69 22 2 45 7 67 14 19 7 38 15 57 25l0 0c3 1 6 3 9 5 32 18 63 42 91 71 29 32 52 66 69 102 9 19 16 39 21 58 1 3 1 6 2 9l377 520c6-4 13-7 20-10l-385-532-19-26c-8-12-7-27 3-37 1 0 1-1 2-1 0-1 1-2 2-2 12-9 30-6 39 6l15 21 408 564c29 3 55 17 75 37 24 23 39 56 39 93 0 36-15 69-39 92-13 14-30 25-49 31l-225 527 216 0c27 0 51 11 69 29 18 18 29 42 29 69l0 69c0 16-13 29-29 29l-960 0c-16 0-29-13-29-29 0-46 19-87 49-118 31-30 72-49 118-49l110 0 0-21c0-14 11-26 25-28l159-33c15-4 30 6 34 22 0 2 0 4 0 5l0 0 0 55 60 0 239-557-1-1c-24-23-39-56-39-92 0-27 8-52 22-73z m-134 723l223-521c-8-1-15-3-22-5l-226 526 25 0z m-298 0l94 0 0-19-94 19z m576 57l-753 0c-30 0-57 13-77 33-14 13-24 30-29 49l900 0 0-41c0-11-5-21-12-29-8-7-18-12-29-12z m-1284-1063c-16 4-31-5-35-20-4-16 5-31 20-35l16-4c15-4 31 5 35 20 4 15-6 31-21 35l-15 4z m79-21c-16 4-31-5-35-20-4-16 5-31 20-35l41-11c16-4 31 5 35 20 4 15-5 31-20 35l-41 11z m226 291c-5 15-21 24-36 19-15-4-23-20-19-35l15-50c4-14 18-23 32-20-13-6-20-21-16-34l4-14c4-15 20-24 35-19 15 4 24 20 20 35l-4 14c-5 14-18 22-32 20 13 5 20 20 16 34l-15 50z m-91-110c-9 12-27 15-39 5-13-9-16-27-6-39l32-44c9-12 27-15 40-6 12 10 15 28 6 40l-33 44z m-218 9c-13 8-31 5-40-8-9-13-6-31 7-39l23-16c13-8 30-5 39 8 9 13 6 31-7 39l-22 16z m91-57c-13 9-30 7-40-6-9-12-7-30 6-40l86-64c12-10 30-7 39 6 10 12 7 30-5 39l-86 65z m664-369c0-1 0-3 0-4-12-51-39-102-80-146-53-57-121-90-188-97-65-8-129 10-175 53l-135 127c16 7 33 17 51 29 48 34 108 86 167 149 1 0 1 0 1 1l0 0 0 0 1 0 0 0c60 64 109 127 139 178 11 19 20 36 26 52l135-126c46-43 68-106 64-171 0-15-2-30-6-45z m-235 382c2-2-10-26-33-63-4-7-9-14-14-22-15 10-31 17-48 22 25 20 47 36 66 46 19 10 29 17 29 17z m-80-132c-24-31-52-64-84-98l0 0 0 0c-1-1-2-1-2-2-32-34-64-64-93-90-17 22-25 49-25 75-1 34 11 68 36 94 24 26 57 40 91 42 26 1 53-6 77-21z m-224-226c-7-5-14-10-20-15-36-25-59-39-61-37l0 0c0 1 6 10 15 29 9 20 23 43 41 69 6-16 15-32 25-46z m1037 517c20 0 38 8 51 21l0 0c13 13 21 31 21 51 0 19-8 37-21 50-1 1-1 2-2 2-13 12-30 19-49 19-19 0-37-8-50-21-13-13-21-31-21-50 0-20 8-38 21-51 13-13 31-21 50-21z m11 61c-3-3-6-4-11-4-4 0-7 2-10 4-3 3-4 6-4 11 0 4 1 7 4 10 3 3 6 4 10 4 4 0 7-1 10-3 0-1 1-1 1-1 2-3 4-6 4-10 0-5-2-8-4-11l0 0 0 0z m42-42c-14-13-32-22-53-22-20 0-39 9-52 22-13 13-22 32-22 53 0 20 9 39 22 52 13 13 32 22 52 22 21 0 39-9 53-22 13-13 22-32 22-52 0-21-9-40-22-53z" fill="#e77917" fill-rule="nonzero" data-fill-palette-color="accent"></path></g></g></svg></g><g transform="matrix(1,0,0,1,58.02160145000535,3.9138016997167178)"><svg width="395.52" viewBox="3.049999952316284 -35.70000076293945 282.3800048828125 36" height="50.42039660056656" data-palette-color="#130912"><path d="M12.8 0L3.05 0 3.05-35.5 18.35-35.5Q20.95-35.5 23.15-34.45 25.35-33.4 26.95-31.63 28.55-29.85 29.43-27.65 30.3-25.45 30.3-23.2L30.3-23.2Q30.3-20.05 28.83-17.25 27.35-14.45 24.73-12.68 22.1-10.9 18.6-10.9L18.6-10.9 12.8-10.9 12.8 0ZM12.8-27L12.8-19.4 17.95-19.4Q18.55-19.4 19.1-19.75 19.65-20.1 20.03-20.95 20.4-21.8 20.4-23.2L20.4-23.2Q20.4-24.7 19.98-25.53 19.55-26.35 18.93-26.68 18.3-27 17.7-27L17.7-27 12.8-27ZM43.95 0L34.2 0 34.2-35.5 50.5-35.5Q53.1-35.5 55.3-34.45 57.5-33.4 59.1-31.63 60.7-29.85 61.57-27.65 62.45-25.45 62.45-23.2L62.45-23.2Q62.45-21.15 61.85-19.25 61.25-17.35 60.1-15.78 58.95-14.2 57.35-13.05L57.35-13.05 64.85 0 54.15 0 47.9-10.9 43.95-10.9 43.95 0ZM43.95-27L43.95-19.4 50.1-19.4Q50.7-19.4 51.25-19.85 51.8-20.3 52.17-21.15 52.55-22 52.55-23.2L52.55-23.2Q52.55-24.45 52.12-25.28 51.7-26.1 51.07-26.55 50.45-27 49.85-27L49.85-27 43.95-27ZM83.5 0.3L83.5 0.3Q79.45 0.3 76.15-1.23 72.85-2.75 70.47-5.33 68.1-7.9 66.82-11.13 65.55-14.35 65.55-17.8L65.55-17.8Q65.55-21.35 66.9-24.55 68.25-27.75 70.67-30.28 73.1-32.8 76.42-34.25 79.75-35.7 83.7-35.7L83.7-35.7Q87.75-35.7 91.05-34.18 94.35-32.65 96.7-30.05 99.05-27.45 100.32-24.23 101.59-21 101.59-17.6L101.59-17.6Q101.59-14.1 100.27-10.9 98.95-7.7 96.52-5.18 94.1-2.65 90.8-1.18 87.5 0.3 83.5 0.3ZM75.45-17.7L75.45-17.7Q75.45-15.9 75.95-14.23 76.45-12.55 77.45-11.23 78.45-9.9 79.97-9.13 81.5-8.35 83.6-8.35L83.6-8.35Q85.7-8.35 87.25-9.15 88.8-9.95 89.77-11.33 90.75-12.7 91.22-14.38 91.7-16.05 91.7-17.8L91.7-17.8Q91.7-19.6 91.2-21.25 90.7-22.9 89.7-24.23 88.7-25.55 87.15-26.3 85.6-27.05 83.55-27.05L83.55-27.05Q81.45-27.05 79.92-26.25 78.4-25.45 77.4-24.13 76.4-22.8 75.92-21.13 75.45-19.45 75.45-17.7ZM142.34 0L132.59 0 132.59-18.7 126.64-5.55 121.44-5.55 115.49-18.7 115.49 0 105.74 0 105.74-35.5 116.39-35.5 124.04-18.8 131.74-35.5 142.34-35.5 142.34 0ZM158.19 0L148.44 0 148.44-35.5 163.74-35.5Q166.34-35.5 168.54-34.45 170.74-33.4 172.34-31.63 173.94-29.85 174.82-27.65 175.69-25.45 175.69-23.2L175.69-23.2Q175.69-20.05 174.22-17.25 172.74-14.45 170.12-12.68 167.49-10.9 163.99-10.9L163.99-10.9 158.19-10.9 158.19 0ZM158.19-27L158.19-19.4 163.34-19.4Q163.94-19.4 164.49-19.75 165.04-20.1 165.42-20.95 165.79-21.8 165.79-23.2L165.79-23.2Q165.79-24.7 165.37-25.53 164.94-26.35 164.32-26.68 163.69-27 163.09-27L163.09-27 158.19-27ZM207.24-35.5L207.24-27 197.04-27 197.04 0 187.29 0 187.29-27 177.04-27 177.04-35.5 207.24-35.5ZM220.54 0L210.79 0 210.79-35.5 220.54-35.5 220.54 0ZM236.38 0L226.63 0 226.63-35.5 250.98-35.5 250.98-27 236.38-27 236.38-21.1 248.28-21.1 248.28-13.2 236.38-13.2 236.38 0ZM251.43-35.5L261.98-35.5 268.33-21 274.83-35.5 285.43-35.5 273.18-11.75 273.18 0 263.48 0 263.48-11.85 251.43-35.5Z" opacity="1" transform="matrix(1,0,0,1,0,0)" fill="#130912" class="undefined-text-0" data-fill-palette-color="primary"></path></svg></g></svg></g></svg></g><g transform="matrix(1,0,0,1,86.62644587695101,70.15104554787536)"><svg viewBox="0 0 280.2887096961033 24.80016963922116" height="24.80016963922116" width="280.2887096961033"><g transform="matrix(1,0,0,1,0,0)"><svg width="280.2887096961033" viewBox="4.050000190734863 -38.150001525878906 568.989990234375 50.35000228881836" height="24.80016963922116" data-palette-color="#130912"><path d="M6.95 0L4.05 0 4.05-29.65Q4.05-31.7 4.65-33.05 5.25-34.4 6.25-35.2 7.25-36 8.47-36.35 9.7-36.7 10.95-36.7L10.95-36.7Q13.25-36.65 15.8-36.63 18.35-36.6 20.98-36.52 23.6-36.45 26.1-36.3L26.1-36.3 26.1-34.05 11.5-34.05Q9.45-34.05 8.2-32.88 6.95-31.7 6.95-29.3L6.95-29.3 6.95-18.8 24-18.55 24-16.4 6.95-16.15 6.95 0ZM34.7-31.65L32.75-31.65Q32-31.65 32-32.4L32-32.4 32-35.95Q32-36.7 32.75-36.7L32.75-36.7 34.7-36.7Q35.05-36.7 35.2-36.5 35.35-36.3 35.35-35.95L35.35-35.95 35.35-32.4Q35.35-31.65 34.7-31.65L34.7-31.65ZM35.15 0L32.25 0 32.25-26.65 35.15-26.65 35.15 0ZM46.2 0L43.3 0 43.3-26.65 45.45-26.65 46.2-23.65Q48.2-25 50.82-26.05 53.45-27.1 56.35-27.1L56.35-27.1Q59.15-27.1 60.97-25.88 62.8-24.65 63.7-22.63 64.6-20.6 64.6-18.3L64.6-18.3 64.6 0 61.7 0 61.7-18Q61.7-19.85 60.95-21.3 60.2-22.75 58.85-23.6 57.5-24.45 55.55-24.45L55.55-24.45Q53.65-24.45 52.12-24.13 50.6-23.8 49.17-23.15 47.75-22.5 46.2-21.65L46.2-21.65 46.2 0ZM81.19 0.3L81.19 0.3Q77.84 0.3 75.72-1.15 73.59-2.6 72.59-5.6 71.59-8.6 71.59-13.15L71.59-13.15Q71.59-18.1 72.62-21.15 73.64-24.2 75.84-25.58 78.04-26.95 81.69-26.95L81.69-26.95Q84.04-26.95 86.32-26.43 88.59-25.9 90.29-25.3L90.29-25.3 90.29-38.15 93.19-38.15 93.19 0 90.89 0 90.29-2.75Q89.59-2.1 88.04-1.4 86.49-0.7 84.64-0.2 82.79 0.3 81.19 0.3ZM81.89-2.15L81.89-2.15Q84.44-2.15 86.52-2.95 88.59-3.75 90.29-4.6L90.29-4.6 90.29-23.25Q88.24-23.85 86.44-24.25 84.64-24.65 82.34-24.65L82.34-24.65Q79.54-24.65 77.82-23.6 76.09-22.55 75.29-20.08 74.49-17.6 74.49-13.25L74.49-13.25Q74.49-9.35 75.24-6.88 75.99-4.4 77.62-3.28 79.24-2.15 81.89-2.15ZM124.39 0.3L124.39 0.3Q122.14 0.3 120.24-0.3 118.34-0.9 116.91-2.38 115.49-3.85 114.69-6.5 113.89-9.15 113.89-13.3L113.89-13.3Q113.89-17.45 114.64-20.1 115.39-22.75 116.76-24.25 118.14-25.75 120.09-26.33 122.04-26.9 124.44-26.9L124.44-26.9Q126.29-26.9 128.66-26.78 131.04-26.65 133.09-26.35L133.09-26.35 133.09-24.6 125.09-24.6Q122.44-24.6 120.61-23.73 118.79-22.85 117.79-20.38 116.79-17.9 116.79-13.15L116.79-13.15Q116.79-8.65 117.84-6.23 118.89-3.8 120.74-2.93 122.59-2.05 125.09-2.05L125.09-2.05 133.49-2.05 133.49-0.3Q132.34-0.15 130.89 0 129.44 0.15 127.79 0.23 126.14 0.3 124.39 0.3ZM142.29 0L139.39 0 139.39-26.65 141.54-26.65 142.29-21.85Q144.19-24.05 146.51-25.5 148.84-26.95 151.89-26.95L151.89-26.95Q152.64-26.95 153.29-26.88 153.94-26.8 154.49-26.65L154.49-26.65 154.49-23.7Q153.84-23.8 153.14-23.9 152.44-24 151.64-24L151.64-24Q149.69-24 148.16-23.5 146.64-23 145.24-22.03 143.84-21.05 142.29-19.6L142.29-19.6 142.29 0ZM169.68 0.3L169.68 0.3Q165.58 0.3 163.21-0.98 160.83-2.25 159.83-5.25 158.83-8.25 158.83-13.4L158.83-13.4Q158.83-18.65 159.88-21.6 160.93-24.55 163.36-25.75 165.78-26.95 169.83-26.95L169.83-26.95Q173.23-26.95 175.41-26.18 177.58-25.4 178.66-23.5 179.73-21.6 179.73-18.25L179.73-18.25Q179.73-16 178.86-14.63 177.98-13.25 176.33-12.65 174.68-12.05 172.43-12.05L172.43-12.05 161.73-12.05Q161.73-8.4 162.43-6.2 163.13-4 164.96-3 166.78-2 170.33-2L170.33-2 179.13-2 179.13-0.25Q176.73 0 174.61 0.15 172.48 0.3 169.68 0.3ZM161.68-14.1L161.68-14.1 172.23-14.1Q174.68-14.1 175.88-14.98 177.08-15.85 177.08-18.25L177.08-18.25Q177.08-20.75 176.36-22.15 175.63-23.55 174.06-24.13 172.48-24.7 169.83-24.7L169.83-24.7Q166.68-24.7 164.91-23.8 163.13-22.9 162.41-20.6 161.68-18.3 161.68-14.1ZM191.98 0.3L191.98 0.3Q189.08 0.3 187.16-1.43 185.23-3.15 185.23-6.35L185.23-6.35 185.23-8.15Q185.23-11.3 187.31-13.25 189.38-15.2 193.43-15.2L193.43-15.2 203.18-15.2 203.18-18.9Q203.18-20.7 202.56-22 201.93-23.3 200.38-24 198.83-24.7 195.93-24.7L195.93-24.7 187.58-24.7 187.58-26.45Q189.23-26.65 191.51-26.85 193.78-27.05 196.73-27.1L196.73-27.1Q199.98-27.15 202.06-26.28 204.13-25.4 205.11-23.6 206.08-21.8 206.08-19.05L206.08-19.05 206.08 0 203.88 0 203.28-3.1Q203.13-3 202.06-2.48 200.98-1.95 199.28-1.3 197.58-0.65 195.68-0.18 193.78 0.3 191.98 0.3ZM192.98-2L192.98-2Q193.98-1.95 195.31-2.23 196.63-2.5 197.98-2.88 199.33-3.25 200.51-3.63 201.68-4 202.41-4.3 203.13-4.6 203.18-4.6L203.18-4.6 203.18-13.65 193.88-13.3Q190.78-13.2 189.46-11.75 188.13-10.3 188.13-8.1L188.13-8.1 188.13-6.85Q188.13-5.05 188.88-3.98 189.63-2.9 190.76-2.45 191.88-2 192.98-2ZM225.83 0L222.48 0Q220.08 0 218.45-0.85 216.83-1.7 216.03-3.55 215.23-5.4 215.23-8.35L215.23-8.35 215.38-24.2 211.13-24.2 211.13-26.1 215.38-26.65 215.93-34.1 218.13-34.1 218.13-26.65 226.23-26.65 226.23-24.2 218.13-24.2 218.13-8.35Q218.13-6.45 218.55-5.28 218.98-4.1 219.65-3.5 220.33-2.9 221.1-2.68 221.88-2.45 222.58-2.4L222.58-2.4 225.83-2.1 225.83 0ZM234.58-31.65L232.63-31.65Q231.88-31.65 231.88-32.4L231.88-32.4 231.88-35.95Q231.88-36.7 232.63-36.7L232.63-36.7 234.58-36.7Q234.93-36.7 235.08-36.5 235.23-36.3 235.23-35.95L235.23-35.95 235.23-32.4Q235.23-31.65 234.58-31.65L234.58-31.65ZM235.03 0L232.13 0 232.13-26.65 235.03-26.65 235.03 0ZM253.77 0L250.47 0 240.12-26.65 243.07-26.65 252.17-2.7 261.47-26.65 264.42-26.65 253.77 0ZM272.02-31.65L270.07-31.65Q269.32-31.65 269.32-32.4L269.32-32.4 269.32-35.95Q269.32-36.7 270.07-36.7L270.07-36.7 272.02-36.7Q272.37-36.7 272.52-36.5 272.67-36.3 272.67-35.95L272.67-35.95 272.67-32.4Q272.67-31.65 272.02-31.65L272.02-31.65ZM272.47 0L269.57 0 269.57-26.65 272.47-26.65 272.47 0ZM292.37 0L289.02 0Q286.62 0 284.99-0.85 283.37-1.7 282.57-3.55 281.77-5.4 281.77-8.35L281.77-8.35 281.92-24.2 277.67-24.2 277.67-26.1 281.92-26.65 282.47-34.1 284.67-34.1 284.67-26.65 292.77-26.65 292.77-24.2 284.67-24.2 284.67-8.35Q284.67-6.45 285.09-5.28 285.52-4.1 286.19-3.5 286.87-2.9 287.64-2.68 288.42-2.45 289.12-2.4L289.12-2.4 292.37-2.1 292.37 0ZM307.57 11.85L305.47 11.85 309.02 0Q308.02-0.05 306.77-0.5 305.52-0.95 304.39-2.23 303.27-3.5 302.42-5.95L302.42-5.95 295.62-26.65 298.67-26.65 305.17-6.6Q305.77-4.9 306.49-4.08 307.22-3.25 307.92-2.93 308.62-2.6 309.12-2.58 309.62-2.55 309.67-2.55L309.67-2.55 317.17-26.65 320.17-26.65 309.87 6.9 307.57 11.85ZM350.76 0L347.41 0Q345.01 0 343.39-0.85 341.76-1.7 340.96-3.55 340.16-5.4 340.16-8.35L340.16-8.35 340.31-24.2 336.06-24.2 336.06-26.1 340.31-26.65 340.86-34.1 343.06-34.1 343.06-26.65 351.16-26.65 351.16-24.2 343.06-24.2 343.06-8.35Q343.06-6.45 343.49-5.28 343.91-4.1 344.59-3.5 345.26-2.9 346.04-2.68 346.81-2.45 347.51-2.4L347.51-2.4 350.76-2.1 350.76 0ZM359.96 0L357.06 0 357.06-38.15 359.96-38.15 359.96-23.65Q361.91-25 364.58-26.05 367.26-27.1 370.11-27.1L370.11-27.1Q372.86-27.1 374.68-25.9 376.51-24.7 377.43-22.68 378.36-20.65 378.36-18.3L378.36-18.3 378.36 0 375.46 0 375.46-18.05Q375.46-19.85 374.71-21.3 373.96-22.75 372.61-23.6 371.26-24.45 369.31-24.45L369.31-24.45Q367.41-24.45 365.88-24.1 364.36-23.75 362.96-23.13 361.56-22.5 359.96-21.65L359.96-21.65 359.96 0ZM389.26 0L386.36 0 386.36-26.65 388.51-26.65 389.26-21.85Q391.16-24.05 393.48-25.5 395.81-26.95 398.86-26.95L398.86-26.95Q399.61-26.95 400.26-26.88 400.91-26.8 401.46-26.65L401.46-26.65 401.46-23.7Q400.81-23.8 400.11-23.9 399.41-24 398.61-24L398.61-24Q396.66-24 395.13-23.5 393.61-23 392.21-22.03 390.81-21.05 389.26-19.6L389.26-19.6 389.26 0ZM417.1 0.3L417.1 0.3Q414.35 0.3 412.23-0.28 410.1-0.85 408.65-2.33 407.2-3.8 406.5-6.48 405.8-9.15 405.8-13.35L405.8-13.35Q405.8-17.6 406.53-20.28 407.25-22.95 408.68-24.4 410.1-25.85 412.23-26.4 414.35-26.95 417.1-26.95L417.1-26.95Q419.85-26.95 421.98-26.4 424.1-25.85 425.55-24.4 427-22.95 427.73-20.28 428.45-17.6 428.45-13.35L428.45-13.35Q428.45-9.15 427.73-6.45 427-3.75 425.58-2.3 424.15-0.85 422-0.28 419.85 0.3 417.1 0.3ZM417.1-2.15L417.1-2.15Q419.1-2.15 420.7-2.53 422.3-2.9 423.35-4.03 424.4-5.15 424.98-7.4 425.55-9.65 425.55-13.35L425.55-13.35Q425.55-17.1 424.98-19.33 424.4-21.55 423.35-22.68 422.3-23.8 420.7-24.18 419.1-24.55 417.1-24.55L417.1-24.55Q415.05-24.55 413.5-24.18 411.95-23.8 410.88-22.68 409.8-21.55 409.25-19.33 408.7-17.1 408.7-13.35L408.7-13.35Q408.7-9.65 409.25-7.4 409.8-5.15 410.88-4.03 411.95-2.9 413.5-2.53 415.05-2.15 417.1-2.15ZM443.65 0.3L443.65 0.3Q439.8 0.3 437.7-1.65 435.6-3.6 435.6-7.9L435.6-7.9 435.6-26.65 438.5-26.65 438.5-8.55Q438.5-4.85 440.15-3.58 441.8-2.3 444.9-2.3L444.9-2.3Q447.5-2.3 449.6-2.98 451.7-3.65 454-5L454-5 454-26.65 456.9-26.65 456.9 0 454.75 0 454-3Q451.95-1.65 449.28-0.68 446.6 0.3 443.65 0.3ZM478.65 12.2L471.35 12.2Q468.75 12.2 466.77 11.48 464.8 10.75 463.67 9.28 462.55 7.8 462.55 5.55L462.55 5.55 462.55 4.25Q462.55 1.85 463.85 0.33 465.15-1.2 467.1-1.98 469.05-2.75 471.05-2.75L471.05-2.75 471.65-1.4Q470.05-1.4 468.6-0.85 467.15-0.3 466.22 0.83 465.3 1.95 465.3 3.85L465.3 3.85 465.3 5.1Q465.3 7.8 467.1 8.9 468.9 10 471.95 10L471.95 10 478.4 10Q481.8 10 483.72 8.7 485.65 7.4 485.65 4.75L485.65 4.75 485.65 3.6Q485.65 2.1 485.05 0.98 484.45-0.15 483.02-0.78 481.6-1.4 479-1.4L479-1.4 470.35-1.4Q467.65-1.4 466.07-2.6 464.5-3.8 464.5-5.8L464.5-5.8Q464.5-7.8 465.7-8.9 466.9-10 469.05-10.4L469.05-10.4Q467.1-11.15 466.02-12.43 464.95-13.7 464.52-15.2 464.1-16.7 464.1-18.15L464.1-18.15Q464.1-21.3 465.37-23.18 466.65-25.05 468.92-25.88 471.2-26.7 474.15-26.7L474.15-26.7 488.35-26.7 488.35-25 481.75-24.6Q482.45-24.15 483.35-23.43 484.25-22.7 484.92-21.28 485.6-19.85 485.6-17.35L485.6-17.35Q485.6-15.4 484.75-13.55 483.9-11.7 481.85-10.48 479.8-9.25 476.25-9.25L476.25-9.25 472.15-9.25Q469.75-9.25 468.42-8.58 467.1-7.9 467.1-6.15L467.1-6.15Q467.1-4.8 468.05-4.25 469-3.7 470.05-3.7L470.05-3.7 479.35-3.7Q482.45-3.7 484.42-2.9 486.4-2.1 487.37-0.53 488.35 1.05 488.35 3.4L488.35 3.4 488.35 4.6Q488.35 8.2 485.9 10.2 483.45 12.2 478.65 12.2L478.65 12.2ZM472.9-11.6L472.9-11.6 475.95-11.6Q478.8-11.6 480.3-12.48 481.8-13.35 482.35-14.7 482.9-16.05 482.9-17.65L482.9-17.65Q482.9-20.15 482.05-21.63 481.2-23.1 479.77-23.75 478.35-24.4 476.45-24.4L476.45-24.4 473.6-24.4Q470.45-24.4 468.62-22.98 466.8-21.55 466.8-18.05L466.8-18.05Q466.8-14.65 468.45-13.13 470.1-11.6 472.9-11.6ZM496.55 0L493.65 0 493.65-38.15 496.55-38.15 496.55-23.65Q498.5-25 501.17-26.05 503.85-27.1 506.7-27.1L506.7-27.1Q509.45-27.1 511.27-25.9 513.1-24.7 514.02-22.68 514.95-20.65 514.95-18.3L514.95-18.3 514.95 0 512.05 0 512.05-18.05Q512.05-19.85 511.3-21.3 510.55-22.75 509.2-23.6 507.85-24.45 505.9-24.45L505.9-24.45Q504-24.45 502.47-24.1 500.95-23.75 499.55-23.13 498.15-22.5 496.55-21.65L496.55-21.65 496.55 0ZM537.54 0L534.49 0 547.44-36.7 551.19-36.7 564.14 0 561.09 0 557.04-11.4 541.54-11.4 537.54 0ZM549.29-34.1L542.29-14 556.19-14 549.29-34.1ZM573.04 0L570.14 0 570.14-36.7 573.04-36.7 573.04 0Z" opacity="1" transform="matrix(1,0,0,1,0,0)" fill="#130912" class="undefined-text-1" data-fill-palette-color="secondary" id="text-1"></path></svg></g></svg></g></svg></g></svg></g></svg></g><defs></defs></svg><rect width="395.52" height="82.80410112486709" fill="none" stroke="none" visibility="hidden"></rect></g></svg></g></svg>