<svg xmlns="http://www.w3.org/2000/svg" version="1.1" xmlns:xlink="http://www.w3.org/1999/xlink" xmlns:svgjs="http://svgjs.dev/svgjs" width="800" height="1041" viewBox="0 0 800 1041"><g transform="matrix(1,0,0,1,-2.370422726598065,2.635373684210549)"><svg viewBox="0 0 73 95" data-background-color="#fafafa" preserveAspectRatio="xMidYMid meet" height="1041" width="800" xmlns="http://www.w3.org/2000/svg" xmlns:xlink="http://www.w3.org/1999/xlink"><g id="tight-bounds" transform="matrix(1,0,0,1,0.21630107380207164,-0.24049999999999727)"><svg viewBox="0 0 72.56739785239586 95.481" height="95.481" width="72.56739785239586"><g><svg viewBox="0 0 72.56739785239586 95.481" height="95.481" width="72.56739785239586"><g><svg viewBox="0 0 72.56739785239586 95.481" height="95.481" width="72.56739785239586"><g id="textblocktransform"><svg viewBox="0 0 72.56739785239586 95.481" height="95.481" width="72.56739785239586" id="textblock"><g><svg viewBox="0 0 72.56739785239586 95.481" height="95.481" width="72.56739785239586"><g><svg viewBox="0 0 72.56739785239586 95.481" height="95.481" width="72.56739785239586"><g><svg xmlns="http://www.w3.org/2000/svg" xmlns:xlink="http://www.w3.org/1999/xlink" xml:space="preserve" version="1.1" style="shape-rendering:geometricPrecision;text-rendering:geometricPrecision;image-rendering:optimizeQuality;" viewBox="-0.17324610027492193 -0.075 1431.1732461002748 1883.075" x="0" y="0" fill-rule="evenodd" clip-rule="evenodd" width="72.56739785239586" height="95.481" class="icon-icon-0" data-fill-palette-color="accent" id="icon-0"><g fill="#e77917" data-fill-palette-color="accent"><g fill="#e77917" data-fill-palette-color="accent"><path class="" d="M605 134l111-105 0 0 0 0c1 0 2-1 3-2 21-19 48-28 74-27 27 1 54 12 74 33l0 0 0 0c1 1 2 1 2 2l99 105c20 21 29 49 29 76-1 28-12 55-34 75l-55 52-303-209z m261 248l-14 13 14-13z m-35-45l19-18-19 18z m21-19l72-69c10-9 15-22 16-34 0-13-4-26-14-36l-98-105c-1 0-1-1-1-1l0 0 0 0-1 0 0 0 26 245z m-96-248l-94 89 94-89z m1 0l0 0 0 0-1 0 0 0 1 0z m0-1l0 1 0-1z m35-12c-13 0-25 4-35 12l35-12z m34 16c-9-10-22-16-34-16l34 16z m363 891l-327-452c-6 64-33 125-81 170l-177 165 0 0c-20 19-54 15-95-8-33-18-74-49-118-88l-1-1c-42-5-83-24-115-58-32-34-49-76-51-119-1-1-1-2-2-2-36-46-63-89-79-122-20-42-22-76-2-94l1-1 176-165c59-56 139-78 220-69 22 2 45 7 67 14 19 7 38 15 57 25l0 0c3 1 6 3 9 5 32 18 63 42 91 71 29 32 52 66 69 102 9 19 16 39 21 58 1 3 1 6 2 9l377 520c6-4 13-7 20-10l-385-532-19-26c-8-12-7-27 3-37 1 0 1-1 2-1 0-1 1-2 2-2 12-9 30-6 39 6l15 21 408 564c29 3 55 17 75 37 24 23 39 56 39 93 0 36-15 69-39 92-13 14-30 25-49 31l-225 527 216 0c27 0 51 11 69 29 18 18 29 42 29 69l0 69c0 16-13 29-29 29l-960 0c-16 0-29-13-29-29 0-46 19-87 49-118 31-30 72-49 118-49l110 0 0-21c0-14 11-26 25-28l159-33c15-4 30 6 34 22 0 2 0 4 0 5l0 0 0 55 60 0 239-557-1-1c-24-23-39-56-39-92 0-27 8-52 22-73z m-134 723l223-521c-8-1-15-3-22-5l-226 526 25 0z m-298 0l94 0 0-19-94 19z m576 57l-753 0c-30 0-57 13-77 33-14 13-24 30-29 49l900 0 0-41c0-11-5-21-12-29-8-7-18-12-29-12z m-1284-1063c-16 4-31-5-35-20-4-16 5-31 20-35l16-4c15-4 31 5 35 20 4 15-6 31-21 35l-15 4z m79-21c-16 4-31-5-35-20-4-16 5-31 20-35l41-11c16-4 31 5 35 20 4 15-5 31-20 35l-41 11z m226 291c-5 15-21 24-36 19-15-4-23-20-19-35l15-50c4-14 18-23 32-20-13-6-20-21-16-34l4-14c4-15 20-24 35-19 15 4 24 20 20 35l-4 14c-5 14-18 22-32 20 13 5 20 20 16 34l-15 50z m-91-110c-9 12-27 15-39 5-13-9-16-27-6-39l32-44c9-12 27-15 40-6 12 10 15 28 6 40l-33 44z m-218 9c-13 8-31 5-40-8-9-13-6-31 7-39l23-16c13-8 30-5 39 8 9 13 6 31-7 39l-22 16z m91-57c-13 9-30 7-40-6-9-12-7-30 6-40l86-64c12-10 30-7 39 6 10 12 7 30-5 39l-86 65z m664-369c0-1 0-3 0-4-12-51-39-102-80-146-53-57-121-90-188-97-65-8-129 10-175 53l-135 127c16 7 33 17 51 29 48 34 108 86 167 149 1 0 1 0 1 1l0 0 0 0 1 0 0 0c60 64 109 127 139 178 11 19 20 36 26 52l135-126c46-43 68-106 64-171 0-15-2-30-6-45z m-235 382c2-2-10-26-33-63-4-7-9-14-14-22-15 10-31 17-48 22 25 20 47 36 66 46 19 10 29 17 29 17z m-80-132c-24-31-52-64-84-98l0 0 0 0c-1-1-2-1-2-2-32-34-64-64-93-90-17 22-25 49-25 75-1 34 11 68 36 94 24 26 57 40 91 42 26 1 53-6 77-21z m-224-226c-7-5-14-10-20-15-36-25-59-39-61-37l0 0c0 1 6 10 15 29 9 20 23 43 41 69 6-16 15-32 25-46z m1037 517c20 0 38 8 51 21l0 0c13 13 21 31 21 51 0 19-8 37-21 50-1 1-1 2-2 2-13 12-30 19-49 19-19 0-37-8-50-21-13-13-21-31-21-50 0-20 8-38 21-51 13-13 31-21 50-21z m11 61c-3-3-6-4-11-4-4 0-7 2-10 4-3 3-4 6-4 11 0 4 1 7 4 10 3 3 6 4 10 4 4 0 7-1 10-3 0-1 1-1 1-1 2-3 4-6 4-10 0-5-2-8-4-11l0 0 0 0z m42-42c-14-13-32-22-53-22-20 0-39 9-52 22-13 13-22 32-22 53 0 20 9 39 22 52 13 13 32 22 52 22 21 0 39-9 53-22 13-13 22-32 22-52 0-21-9-40-22-53z" fill="#e77917" fill-rule="nonzero" data-fill-palette-color="accent"></path></g></g></svg></g></svg></g></svg></g></svg></g></svg></g></svg></g><defs></defs></svg><rect width="72.56739785239586" height="95.481" fill="none" stroke="none" visibility="hidden"></rect></g></svg></g></svg>